<svg width="280" height="280" viewBox="0 0 280 280" fill="none" xmlns="http://www.w3.org/2000/svg">
<g clip-path="url(#clip0_8_15)">
<path d="M70 110C92.0914 110 110 92.0914 110 70C110 47.9086 92.0914 30 70 30C47.9086 30 30 47.9086 30 70C30 92.0914 47.9086 110 70 110Z" fill="#88C9F9"/>
<path d="M87.1467 33.9022C84.8756 35.1644 82.9867 37.2978 80.4178 36.5267C76.2511 35.2778 70.6956 32.5 67.0844 35.9711C63.4733 39.4422 62.64 42.6378 67.0844 42.5C71.5289 42.3622 74.5844 37.0822 76.8067 39.3044C79.0289 41.5267 78.4711 43.3333 73.1956 44.0267C67.92 44.72 62.2222 45.5556 59.1667 45.5556C56.1111 45.5556 55.4156 47.36 57.5 49.3067C59.5844 51.2533 56.2489 51.3889 52.7778 53.3333C49.3067 55.2778 53.6111 56.1111 56.5289 57.7778C59.4467 59.4444 61.6667 57.36 62.9178 54.5822C64.1689 51.8044 69.5422 48.4711 71.7844 48.8889C74.0289 49.3067 74.0289 50.4178 73.6111 52.36C73.1933 54.3022 75.2778 53.7489 75.4156 51.5267C75.5533 49.3044 78.0556 47.6378 79.9978 47.5C81.94 47.3622 83.6089 50.14 81.3867 51.5267C79.1644 52.9133 76.9422 54.0267 79.72 54.7222C82.4978 55.4178 84.4422 59.0289 81.2489 60.5556C78.0556 62.0822 72.5 63.0556 70 61.8044C67.5 60.5533 61.8044 58.7489 60.2778 59.72C58.7511 60.6911 57.9178 61.6978 56.1111 62.3756C54.3067 63.0533 46.9444 66.3867 46.8044 70.6933C46.6644 75 46.5289 79.8622 49.4444 80C52.36 80.1378 59.4444 78.1956 61.6667 76.3889C63.8889 74.5822 66.9444 75 67.9156 77.0822C68.8867 79.1644 68.1933 80.4156 67.2222 83.7489C66.2511 87.0822 67.8578 88.7489 69.4156 91.6644C70.9733 94.58 72.2222 96.2467 72.2222 98.3311C72.2222 100.416 74.4444 102.498 77.7778 99.0244C81.1111 95.5511 84.1667 88.7467 85.5556 86.2467C86.9445 83.7467 88.0556 78.1911 89.7222 77.08C91.3889 75.9689 94.0289 73.3289 92.0822 73.7467C90.1356 74.1644 86.2489 73.6089 85.2778 70.8311C84.3067 68.0533 80.14 62.7756 82.0822 62.22C84.0244 61.6644 86.2489 65.3089 87.0822 67.0289C87.9156 68.7489 89.0267 70.8311 90.6933 71.3867C92.36 71.9422 95.9711 67.6689 97.0822 67.0289C98.1933 66.3867 97.36 63.7489 95.1378 64.0267C92.9156 64.3044 90 64.0267 90 62.64C90 61.2533 92.7778 59.4444 95 59.8622C97.2222 60.28 98.8889 60.9733 100.278 62.64C101.667 64.3067 104.444 67.3622 105.556 69.3067C106.667 71.2511 107.5 71.5289 108.056 68.0578C108.424 65.7511 108.916 64.4822 109.367 63.12C107.116 50.1667 98.6556 39.38 87.1467 33.9022Z" fill="#5C913B"/>
</g>
<g clip-path="url(#clip1_8_15)">
<path d="M210 250C232.091 250 250 232.091 250 210C250 187.909 232.091 170 210 170C187.909 170 170 187.909 170 210C170 232.091 187.909 250 210 250Z" fill="#88C9F9"/>
<path d="M227.147 173.902C224.876 175.164 222.987 177.298 220.418 176.527C216.251 175.278 210.696 172.5 207.084 175.971C203.473 179.442 202.64 182.638 207.084 182.5C211.529 182.362 214.584 177.082 216.807 179.304C219.029 181.527 218.471 183.333 213.196 184.027C207.92 184.72 202.222 185.556 199.167 185.556C196.111 185.556 195.416 187.36 197.5 189.307C199.584 191.253 196.249 191.389 192.778 193.333C189.307 195.278 193.611 196.111 196.529 197.778C199.447 199.444 201.667 197.36 202.918 194.582C204.169 191.804 209.542 188.471 211.784 188.889C214.029 189.307 214.029 190.418 213.611 192.36C213.193 194.302 215.278 193.749 215.416 191.527C215.553 189.304 218.056 187.638 219.998 187.5C221.94 187.362 223.609 190.14 221.387 191.527C219.164 192.913 216.942 194.027 219.72 194.722C222.498 195.418 224.442 199.029 221.249 200.556C218.056 202.082 212.5 203.056 210 201.804C207.5 200.553 201.804 198.749 200.278 199.72C198.751 200.691 197.918 201.698 196.111 202.376C194.307 203.053 186.944 206.387 186.804 210.693C186.664 215 186.529 219.862 189.444 220C192.36 220.138 199.444 218.196 201.667 216.389C203.889 214.582 206.944 215 207.916 217.082C208.887 219.164 208.193 220.416 207.222 223.749C206.251 227.082 207.858 228.749 209.416 231.664C210.973 234.58 212.222 236.247 212.222 238.331C212.222 240.416 214.444 242.498 217.778 239.024C221.111 235.551 224.167 228.747 225.556 226.247C226.944 223.747 228.056 218.191 229.722 217.08C231.389 215.969 234.029 213.329 232.082 213.747C230.136 214.164 226.249 213.609 225.278 210.831C224.307 208.053 220.14 202.776 222.082 202.22C224.024 201.664 226.249 205.309 227.082 207.029C227.916 208.749 229.027 210.831 230.693 211.387C232.36 211.942 235.971 207.669 237.082 207.029C238.193 206.387 237.36 203.749 235.138 204.027C232.916 204.304 230 204.027 230 202.64C230 201.253 232.778 199.444 235 199.862C237.222 200.28 238.889 200.973 240.278 202.64C241.667 204.307 244.444 207.362 245.556 209.307C246.667 211.251 247.5 211.529 248.056 208.058C248.424 205.751 248.916 204.482 249.367 203.12C247.116 190.167 238.656 179.38 227.147 173.902Z" fill="#5C913B"/>
</g>
<path d="M247.778 75.5911L172.222 74.4444L172.26 80.2778C172.298 81.5956 173.049 82.9178 174.66 83.9044L190.009 93.3L205.36 102.693C208.751 104.771 214.571 104.578 217.638 102.693C220.711 100.816 219.176 99.8778 222.244 97.9956C225.313 96.12 226.847 97.0578 229.92 95.1822C232.993 93.2978 245.273 85.7889 245.273 85.7889C246.964 84.7533 247.809 83.3956 247.813 82.0356L247.778 75.5911Z" fill="#F4900C"/>
<path d="M245.273 71.6022C245.273 71.6022 177.731 67.8467 174.66 69.7244C171.589 71.6022 171.269 75.1622 174.66 77.24L190.009 86.6356L205.36 96.0311C208.751 98.1089 214.571 97.9156 217.638 96.0311C220.711 94.1533 219.176 93.2156 222.244 91.3333C225.313 89.4578 226.847 90.3956 229.92 88.52C232.993 86.6356 245.271 79.1244 245.271 79.1244C248.662 77.0467 248.664 73.6778 245.273 71.6022Z" fill="#FFAC33"/>
<path d="M192.716 84.76L208.429 94.1556C208.429 94.1556 211.571 96.0311 214.713 94.1556C217.373 92.5622 219.427 89.4578 219.427 89.4578L192.716 84.76Z" fill="#FFD983"/>
<path d="M244.976 71.2556C240.662 65.5022 185.656 61.4511 177.027 69.5511C175.284 71.1889 171.993 74.4844 175.498 79.4156C177.027 81.9978 180.2 83.68 180.622 82.8822C181.607 81.0111 183.571 79.3756 186.518 79.5333C186.351 79.9289 187.942 86.66 187.762 86.8111C185.707 88.5578 189.978 94.6289 194.982 91.3956C196.229 93.8578 203.773 99.9356 208.98 91.6222C210.016 93.4978 220.891 96.3511 223.911 87.6978C223.887 87.8467 223.893 87.9733 223.853 88.1333C223.656 88.9111 225.458 89.5844 227.293 88.94C230.38 87.86 234.838 85.1778 235.627 82.2333C237.829 81.8489 239.48 82.46 240.751 84.14C241.38 84.9711 243.538 85.1711 244.46 84.0844C246.087 82.1756 248.756 76.3 244.976 71.2556Z" fill="#77B255"/>
<path d="M238.889 85.6467C238.889 86.8222 236.898 87.7778 234.444 87.7778H185.556C183.102 87.7778 181.111 86.8222 181.111 85.6467V71.0889H238.889V85.6467Z" fill="#FFCC4D"/>
<path d="M244.024 74.4156C244.024 80.5667 233.833 85.5556 221.264 85.5556C208.691 85.5556 198.502 80.5667 198.502 74.4156C198.502 68.2622 208.691 63.2756 221.264 63.2756C233.833 63.2756 244.024 68.2644 244.024 74.4156Z" fill="#BE1931"/>
<path d="M247.778 62.2578L172.222 61.1111V66.9444H172.26C172.298 68.2622 173.049 69.5844 174.66 70.5711L190.009 79.9667L205.36 89.36C208.751 91.4378 214.571 91.2444 217.638 89.36C220.711 87.4822 219.176 86.5444 222.244 84.6622C225.313 82.7867 226.847 83.7244 229.92 81.8489C232.993 79.9644 245.273 72.4556 245.273 72.4556C246.964 71.42 247.809 70.0622 247.813 68.7022V68.6911L247.778 62.2578Z" fill="#F4900C"/>
<path d="M245.273 58.2689L214.573 39.4822C211.182 37.4067 205.684 37.4067 202.291 39.4822L186.94 48.8778C183.871 50.7556 185.404 51.6956 182.336 53.5733C179.267 55.4511 177.731 54.5111 174.66 56.3911C171.589 58.2689 171.269 61.8289 174.66 63.9067L205.36 82.6956C208.751 84.7733 214.571 84.58 217.638 82.6956C220.711 80.8178 219.176 79.88 222.244 77.9978C225.313 76.1222 226.847 77.06 229.92 75.1844C232.993 73.3 245.271 65.7889 245.271 65.7889C248.662 63.7133 248.664 60.3444 245.273 58.2689Z" fill="#FFAC33"/>
<path d="M243 60.1511L211.571 41.3622C211.571 41.3622 208.222 39.6045 205.284 41.3622L189.813 50.6111C187.153 52.2 187.518 53.8622 184.858 55.4511C182.2 57.0422 179.66 56.68 177 58.2689C173.858 60.1511 177 62.0311 177 62.0311L208.427 80.82C208.427 80.82 211.569 82.6956 214.711 80.82C217.371 79.2267 216.769 77.7156 219.424 76.1222C222.084 74.5289 224.862 74.7467 227.522 73.1578C230.182 71.5711 242.996 63.9067 242.996 63.9067C242.996 63.9067 245.936 61.9044 243 60.1511Z" fill="#FFD983"/>
<path d="M107.778 215.591L32.2222 214.444L32.26 220.278C32.2978 221.596 33.0489 222.918 34.66 223.904L50.0089 233.3L65.36 242.693C68.7511 244.771 74.5711 244.578 77.6378 242.693C80.7111 240.816 79.1756 239.878 82.2444 237.996C85.3133 236.12 86.8467 237.058 89.92 235.182C92.9933 233.298 105.273 225.789 105.273 225.789C106.964 224.753 107.809 223.396 107.813 222.036L107.778 215.591Z" fill="#F4900C"/>
<path d="M105.273 211.602C105.273 211.602 37.7311 207.847 34.66 209.724C31.5889 211.602 31.2689 215.162 34.66 217.24L50.0089 226.636L65.36 236.031C68.7511 238.109 74.5711 237.916 77.6378 236.031C80.7111 234.153 79.1756 233.216 82.2444 231.333C85.3133 229.458 86.8467 230.396 89.92 228.52C92.9933 226.636 105.271 219.124 105.271 219.124C108.662 217.047 108.664 213.678 105.273 211.602Z" fill="#FFAC33"/>
<path d="M52.7156 224.76L68.4289 234.156C68.4289 234.156 71.5711 236.031 74.7133 234.156C77.3733 232.562 79.4267 229.458 79.4267 229.458L52.7156 224.76Z" fill="#FFD983"/>
<path d="M104.976 211.256C100.662 205.502 45.6556 201.451 37.0267 209.551C35.2844 211.189 31.9933 214.484 35.4978 219.416C37.0267 221.998 40.2 223.68 40.6222 222.882C41.6067 221.011 43.5711 219.376 46.5178 219.533C46.3511 219.929 47.9422 226.66 47.7622 226.811C45.7067 228.558 49.9778 234.629 54.9822 231.396C56.2289 233.858 63.7733 239.936 68.98 231.622C70.0156 233.498 80.8911 236.351 83.9111 227.698C83.8867 227.847 83.8933 227.973 83.8533 228.133C83.6555 228.911 85.4578 229.584 87.2933 228.94C90.38 227.86 94.8378 225.178 95.6267 222.233C97.8289 221.849 99.48 222.46 100.751 224.14C101.38 224.971 103.538 225.171 104.46 224.084C106.087 222.176 108.756 216.3 104.976 211.256Z" fill="#77B255"/>
<path d="M98.8889 225.647C98.8889 226.822 96.8978 227.778 94.4444 227.778H45.5556C43.1022 227.778 41.1111 226.822 41.1111 225.647V211.089H98.8889V225.647Z" fill="#FFCC4D"/>
<path d="M104.024 214.416C104.024 220.567 93.8333 225.556 81.2644 225.556C68.6911 225.556 58.5022 220.567 58.5022 214.416C58.5022 208.262 68.6911 203.276 81.2644 203.276C93.8333 203.276 104.024 208.264 104.024 214.416Z" fill="#BE1931"/>
<path d="M107.778 202.258L32.2222 201.111V206.944H32.26C32.2978 208.262 33.0489 209.584 34.66 210.571L50.0089 219.967L65.36 229.36C68.7511 231.438 74.5711 231.244 77.6378 229.36C80.7111 227.482 79.1756 226.544 82.2444 224.662C85.3133 222.787 86.8467 223.724 89.92 221.849C92.9933 219.964 105.273 212.456 105.273 212.456C106.964 211.42 107.809 210.062 107.813 208.702V208.691L107.778 202.258Z" fill="#F4900C"/>
<path d="M105.273 198.269L74.5733 179.482C71.1822 177.407 65.6844 177.407 62.2911 179.482L46.94 188.878C43.8711 190.756 45.4044 191.696 42.3356 193.573C39.2667 195.451 37.7311 194.511 34.66 196.391C31.5889 198.269 31.2689 201.829 34.66 203.907L65.36 222.696C68.7511 224.773 74.5711 224.58 77.6378 222.696C80.7111 220.818 79.1756 219.88 82.2444 217.998C85.3133 216.122 86.8467 217.06 89.92 215.184C92.9933 213.3 105.271 205.789 105.271 205.789C108.662 203.713 108.664 200.344 105.273 198.269Z" fill="#FFAC33"/>
<path d="M103 200.151L71.5711 181.362C71.5711 181.362 68.2222 179.604 65.2844 181.362L49.8133 190.611C47.1533 192.2 47.5178 193.862 44.8578 195.451C42.2 197.042 39.66 196.68 37 198.269C33.8578 200.151 37 202.031 37 202.031L68.4267 220.82C68.4267 220.82 71.5689 222.696 74.7111 220.82C77.3711 219.227 76.7689 217.716 79.4244 216.122C82.0844 214.529 84.8622 214.747 87.5222 213.158C90.1822 211.571 102.996 203.907 102.996 203.907C102.996 203.907 105.936 201.904 103 200.151Z" fill="#FFD983"/>
<defs>
<clipPath id="clip0_8_15">
<rect width="80" height="80" fill="white" transform="translate(30 30)"/>
</clipPath>
<clipPath id="clip1_8_15">
<rect width="80" height="80" fill="white" transform="translate(170 170)"/>
</clipPath>
</defs>
</svg>
