<svg width="36" height="50" viewBox="0 0 36 50" fill="none" xmlns="http://www.w3.org/2000/svg">
<path d="M35 36.7684L1 36.2524L1.017 38.8774C1.034 39.4704 1.372 40.0654 2.097 40.5094L9.004 44.7374L15.912 48.9644C17.438 49.8994 20.057 49.8124 21.437 48.9644C22.82 48.1194 22.129 47.6974 23.51 46.8504C24.891 46.0064 25.581 46.4284 26.964 45.5844C28.347 44.7364 33.873 41.3574 33.873 41.3574C34.634 40.8914 35.014 40.2804 35.016 39.6684L35 36.7684Z" fill="#F4900C"/>
<path d="M33.873 34.9734C33.873 34.9734 3.479 33.2834 2.097 34.1284C0.715 34.9734 0.571 36.5754 2.097 37.5104L9.004 41.7384L15.912 45.9664C17.438 46.9014 20.057 46.8144 21.437 45.9664C22.82 45.1214 22.129 44.6994 23.51 43.8524C24.891 43.0084 25.581 43.4304 26.964 42.5864C28.347 41.7384 33.872 38.3584 33.872 38.3584C35.398 37.4234 35.399 35.9074 33.873 34.9734Z" fill="#FFAC33"/>
<path d="M10.222 40.8944L17.293 45.1224C17.293 45.1224 18.707 45.9664 20.121 45.1224C21.318 44.4054 22.242 43.0084 22.242 43.0084L10.222 40.8944Z" fill="#FFD983"/>
<path d="M33.739 34.8174C31.798 32.2284 7.045 30.4054 3.162 34.0504C2.378 34.7874 0.897001 36.2704 2.474 38.4894C3.162 39.6514 4.59 40.4084 4.78 40.0494C5.223 39.2074 6.107 38.4714 7.433 38.5424C7.358 38.7204 8.074 41.7494 7.993 41.8174C7.068 42.6034 8.99 45.3354 11.242 43.8804C11.803 44.9884 15.198 47.7234 17.541 43.9824C18.007 44.8264 22.901 46.1104 24.26 42.2164C24.249 42.2834 24.252 42.3404 24.234 42.4124C24.145 42.7624 24.956 43.0654 25.782 42.7754C27.171 42.2894 29.177 41.0824 29.532 39.7574C30.523 39.5844 31.266 39.8594 31.838 40.6154C32.121 40.9894 33.092 41.0794 33.507 40.5904C34.239 39.7314 35.44 37.0874 33.739 34.8174Z" fill="#77B255"/>
<path d="M18 41C27.9411 41 36 32.9411 36 23C36 13.0589 27.9411 5 18 5C8.05887 5 0 13.0589 0 23C0 32.9411 8.05887 41 18 41Z" fill="#88C9F9"/>
<path d="M25.716 6.756C24.694 7.324 23.844 8.284 22.688 7.937C20.813 7.375 18.313 6.125 16.688 7.687C15.063 9.249 14.688 10.687 16.688 10.625C18.688 10.563 20.063 8.187 21.063 9.187C22.063 10.187 21.812 11 19.438 11.312C17.064 11.624 14.5 12 13.125 12C11.75 12 11.437 12.812 12.375 13.688C13.313 14.564 11.812 14.625 10.25 15.5C8.688 16.375 10.625 16.75 11.938 17.5C13.251 18.25 14.25 17.312 14.813 16.062C15.376 14.812 17.794 13.312 18.803 13.5C19.813 13.688 19.813 14.188 19.625 15.062C19.437 15.936 20.375 15.687 20.437 14.687C20.499 13.687 21.625 12.937 22.499 12.875C23.373 12.813 24.124 14.063 23.124 14.687C22.124 15.311 21.124 15.812 22.374 16.125C23.624 16.438 24.499 18.063 23.062 18.75C21.625 19.437 19.125 19.875 18 19.312C16.875 18.749 14.312 17.937 13.625 18.374C12.938 18.811 12.563 19.264 11.75 19.569C10.938 19.874 7.625 21.374 7.562 23.312C7.499 25.25 7.438 27.438 8.75 27.5C10.062 27.562 13.25 26.688 14.25 25.875C15.25 25.062 16.625 25.25 17.062 26.187C17.499 27.124 17.187 27.687 16.75 29.187C16.313 30.687 17.036 31.437 17.737 32.749C18.438 34.061 19 34.811 19 35.749C19 36.687 20 37.624 21.5 36.061C23 34.498 24.375 31.436 25 30.311C25.625 29.186 26.125 26.686 26.875 26.186C27.625 25.686 28.813 24.498 27.937 24.686C27.061 24.874 25.312 24.624 24.875 23.374C24.438 22.124 22.563 19.749 23.437 19.499C24.311 19.249 25.312 20.889 25.687 21.663C26.062 22.437 26.562 23.374 27.312 23.624C28.062 23.874 29.687 21.951 30.187 21.663C30.687 21.374 30.312 20.187 29.312 20.312C28.312 20.437 27 20.312 27 19.688C27 19.064 28.25 18.25 29.25 18.438C30.25 18.626 31 18.938 31.625 19.688C32.25 20.438 33.5 21.813 34 22.688C34.5 23.563 34.875 23.688 35.125 22.126C35.291 21.088 35.512 20.517 35.715 19.904C34.702 14.075 30.895 9.221 25.716 6.756Z" fill="#5C913B"/>
<path d="M31 21.4745C31 22.0035 30.104 22.4335 29 22.4335H7C5.896 22.4335 5 22.0035 5 21.4745V14.9235H31V21.4745Z" fill="#FFCC4D"/>
<path d="M33.311 16.4205C33.311 19.1885 28.725 21.4335 23.069 21.4335C17.411 21.4335 12.826 19.1885 12.826 16.4205C12.826 13.6515 17.411 11.4075 23.069 11.4075C28.725 11.4075 33.311 13.6525 33.311 16.4205Z" fill="#BE1931"/>
<path d="M35 10.9495L1 10.4335V13.0585H1.017C1.034 13.6515 1.372 14.2465 2.097 14.6905L9.004 18.9185L15.912 23.1455C17.438 24.0805 20.057 23.9935 21.437 23.1455C22.82 22.3005 22.129 21.8785 23.51 21.0315C24.891 20.1875 25.581 20.6095 26.964 19.7655C28.347 18.9175 33.873 15.5385 33.873 15.5385C34.634 15.0725 35.014 14.4615 35.016 13.8495V13.8445L35 10.9495Z" fill="#F4900C"/>
<path d="M33.873 9.1545L20.058 0.7005C18.532 -0.2335 16.058 -0.2335 14.531 0.7005L7.623 4.9285C6.242 5.7735 6.932 6.1965 5.551 7.0415C4.17 7.8865 3.479 7.4635 2.097 8.3095C0.715 9.1545 0.571 10.7565 2.097 11.6915L15.912 20.1465C17.438 21.0815 20.057 20.9945 21.437 20.1465C22.82 19.3015 22.129 18.8795 23.51 18.0325C24.891 17.1885 25.581 17.6105 26.964 16.7665C28.347 15.9185 33.872 12.5385 33.872 12.5385C35.398 11.6045 35.399 10.0885 33.873 9.1545Z" fill="#FFAC33"/>
<path d="M32.85 10.0015L18.707 1.5465C18.707 1.5465 17.2 0.7555 15.878 1.5465L8.916 5.7085C7.719 6.4235 7.883 7.1715 6.686 7.8865C5.49 8.6025 4.347 8.4395 3.15 9.1545C1.736 10.0015 3.15 10.8475 3.15 10.8475L17.292 19.3025C17.292 19.3025 18.706 20.1465 20.12 19.3025C21.317 18.5855 21.046 17.9055 22.241 17.1885C23.438 16.4715 24.688 16.5695 25.885 15.8545C27.082 15.1405 32.848 11.6915 32.848 11.6915C32.848 11.6915 34.171 10.7905 32.85 10.0015Z" fill="#FFD983"/>
</svg>
